REM DIRINDEX 1\2\5,1\2\6,1\2\7,1\2\8,1\3\9,1\3\10,1\3\11,1\4\12,1\4\13,1\4\14,1\4\15,1\4\16
REM DIRNAME folder01,folder02,folder03,folder04,folder05,folder06,folder07,folder08,folder09,folder10,folder11,folder12,folder13,folder14,folder15,folder16
TITLE ""
FILE "1200_sec02_0354_0361.mp3" MP3
  TRACK 01 AUDIO
    TITLE "0:"
    INDEX 01 00:00:00
  TRACK 02 AUDIO
    TITLE "12:cjc034_05055"
    INDEX 01 00:00:17
  TRACK 03 AUDIO
    TITLE "0:"
    INDEX 01 00:01:22
  TRACK 04 AUDIO
    TITLE "13:cjc034_05056"
    INDEX 01 00:01:56
  TRACK 05 AUDIO
    TITLE "0:"
    INDEX 01 00:04:36
  TRACK 06 AUDIO
    TITLE "14:cjc034_05057"
    INDEX 01 00:04:66
  TRACK 07 AUDIO
    TITLE "0:"
    INDEX 01 00:05:71
  TRACK 08 AUDIO
    TITLE "15:cjc034_05058"
    INDEX 01 00:06:30
  TRACK 09 AUDIO
    TITLE "0:"
    INDEX 01 00:10:35
  TRACK 10 AUDIO
    TITLE "12:cjc034_05059"
    INDEX 01 00:11:68
  TRACK 11 AUDIO
    TITLE "0:"
    INDEX 01 00:13:08
  TRACK 12 AUDIO
    TITLE "13:cjc034_05060"
    INDEX 01 00:13:39
  TRACK 13 AUDIO
    TITLE "0:"
    INDEX 01 00:16:00
  TRACK 14 AUDIO
    TITLE "14:cjc034_05061"
    INDEX 01 00:16:32
  TRACK 15 AUDIO
    TITLE "0:"
    INDEX 01 00:17:47
  TRACK 16 AUDIO
    TITLE "15:cjc034_05062"
    INDEX 01 00:18:05
  TRACK 17 AUDIO
    TITLE "0:"
    INDEX 01 00:22:03
  TRACK 18 AUDIO
    TITLE "12:cjc034_05063"
    INDEX 01 00:23:36
  TRACK 19 AUDIO
    TITLE "0:"
    INDEX 01 00:24:45
  TRACK 20 AUDIO
    TITLE "13:cjc034_05064"
    INDEX 01 00:25:03
  TRACK 21 AUDIO
    TITLE "0:"
    INDEX 01 00:27:43
  TRACK 22 AUDIO
    TITLE "14:cjc034_05065"
    INDEX 01 00:28:00
  TRACK 23 AUDIO
    TITLE "0:"
    INDEX 01 00:29:09
  TRACK 24 AUDIO
    TITLE "15:cjc034_05066"
    INDEX 01 00:29:42
  TRACK 25 AUDIO
    TITLE "0:"
    INDEX 01 00:33:73
  TRACK 26 AUDIO
    TITLE "12:cjc034_05067"
    INDEX 01 00:35:31
  TRACK 27 AUDIO
    TITLE "0:"
    INDEX 01 00:36:33
  TRACK 28 AUDIO
    TITLE "13:cjc034_05068"
    INDEX 01 00:36:68
  TRACK 29 AUDIO
    TITLE "0:"
    INDEX 01 00:39:07
  TRACK 30 AUDIO
    TITLE "14:cjc034_05069"
    INDEX 01 00:39:43
  TRACK 31 AUDIO
    TITLE "0:"
    INDEX 01 00:40:44
  TRACK 32 AUDIO
    TITLE "15:cjc034_05070"
    INDEX 01 00:41:04
  TRACK 33 AUDIO
    TITLE "0:"
    INDEX 01 00:44:56
  TRACK 34 AUDIO
    TITLE "12:cjc034_05071"
    INDEX 01 00:46:11
  TRACK 35 AUDIO
    TITLE "0:"
    INDEX 01 00:47:21
  TRACK 36 AUDIO
    TITLE "13:cjc034_05072"
    INDEX 01 00:47:52
  TRACK 37 AUDIO
    TITLE "0:"
    INDEX 01 00:52:69
  TRACK 38 AUDIO
    TITLE "14:cjc034_05073"
    INDEX 01 00:53:27
  TRACK 39 AUDIO
    TITLE "0:"
    INDEX 01 00:54:34
  TRACK 40 AUDIO
    TITLE "15:cjc034_05074"
    INDEX 01 00:54:66
  TRACK 41 AUDIO
    TITLE "0:"
    INDEX 01 00:58:22
  TRACK 42 AUDIO
    TITLE "12:cjc034_05075"
    INDEX 01 00:59:53
  TRACK 43 AUDIO
    TITLE "0:"
    INDEX 01 01:00:72
  TRACK 44 AUDIO
    TITLE "13:cjc034_05076"
    INDEX 01 01:01:29
  TRACK 45 AUDIO
    TITLE "0:"
    INDEX 01 01:03:65
  TRACK 46 AUDIO
    TITLE "14:cjc034_05077"
    INDEX 01 01:04:23
  TRACK 47 AUDIO
    TITLE "0:"
    INDEX 01 01:05:38
  TRACK 48 AUDIO
    TITLE "15:cjc034_05078"
    INDEX 01 01:05:71
  TRACK 49 AUDIO
    TITLE "0:"
    INDEX 01 01:09:59
  TRACK 50 AUDIO
    TITLE "12:cjc034_05079"
    INDEX 01 01:11:17
  TRACK 51 AUDIO
    TITLE "0:"
    INDEX 01 01:12:26
  TRACK 52 AUDIO
    TITLE "13:cjc034_05080"
    INDEX 01 01:12:60
  TRACK 53 AUDIO
    TITLE "0:"
    INDEX 01 01:16:24
  TRACK 54 AUDIO
    TITLE "14:cjc034_05081"
    INDEX 01 01:16:58
  TRACK 55 AUDIO
    TITLE "0:"
    INDEX 01 01:17:65
  TRACK 56 AUDIO
    TITLE "15:cjc034_05082"
    INDEX 01 01:18:23
  TRACK 57 AUDIO
    TITLE "0:"
    INDEX 01 01:21:57
  TRACK 58 AUDIO
    TITLE "12:cjc034_05083"
    INDEX 01 01:23:13
  TRACK 59 AUDIO
    TITLE "0:"
    INDEX 01 01:24:30
  TRACK 60 AUDIO
    TITLE "13:cjc034_05084"
    INDEX 01 01:24:61
  TRACK 61 AUDIO
    TITLE "0:"
    INDEX 01 01:28:57
  TRACK 62 AUDIO
    TITLE "14:cjc034_05085"
    INDEX 01 01:29:15
  TRACK 63 AUDIO
    TITLE "0:"
    INDEX 01 01:30:32
  TRACK 64 AUDIO
    TITLE "15:cjc034_05086"
    INDEX 01 01:30:66
  TRACK 65 AUDIO
    TITLE "0:"
    INDEX 01 01:36:66
